<svg id="Layer_1" data-name="Layer 1" xmlns="http://www.w3.org/2000/svg" viewBox="0 0 234.1 77.61"><defs><style>.cls-1{fill:none;}</style></defs><path class="cls-1" d="M220,64c-1-1-6.25,2.35-2.91-4.06,2.25-4,0-6.63-2.51-7.33C198,50.81,201.46,66.71,184.89,65c3.42-3.19,10.92-5.7,15.45-6.88-10.34.73-20.61,5.69-30.37,9.17,2.27-2.81,14.13-9.06,12.42-12.31-5.73.27-20.77,5.7-24.69,3.33a27.48,27.48,0,0,1,8.79-7.43A63.14,63.14,0,0,1,151,63.78c-1-2.91,1.73-7.25,3.19-10.67a74.38,74.38,0,0,0-14,13.58c-.71-6.82,6.23-15.46,1.78-21.24-4.74-.41-9.58,16.35-12.71,20.42,0-4.61.56-50.15,8.76-39.06,1.09,14.46-3.23,23.31-12.88,34.12-1.17,1.3-3,2.68-4.51,1.34-2.5-5.45,2.46-12.52,5.91-16.77a82.81,82.81,0,0,1-14.14,20.2c-2.35-8.76-10.62-17.49-20-12.33-9.88,4.73-7.14,23.68,5.24,15,18.56-9.73,34.37-53.89-.44-47.6-6.46-1.2-92.11,77.14-24,41.64-21.67,6.47-.82-6,2.41-24,1.6-4.72-2.29-10-7.19-7-9.21,5.67-14.9,15.28-21.34,23.71l14-48.63C53,24.84,41,41.17,31.27,58.67c-1.47,3.66-6,8.84-3.6,12.57C37.42,70.66,54.14,53.37,52.29,43,47.06,28.2,24.15,35,16.49,23.44,16.08,12.51,29.77,5,39.5,4.16c30.9,1.94-21.87,48.33-33.16,50"/></svg>