<svg id="Layer_1" data-name="Layer 1" xmlns="http://www.w3.org/2000/svg" viewBox="0 0 234.1 77.61"><path d="M221.06,62.91a2.65,2.65,0,0,0-1.82-.65,4.91,4.91,0,0,0-.67.06l-.86.11c-.22,0-.46,0-.68,0s0,0,0,0,.2.12.26.17.28.39.21.4.09-.2,0-.13c.21-.17.39-1.2.53-1.51,1.12-2.4,2.24-4.83.78-7.38a6.4,6.4,0,0,0-5.62-3,15.87,15.87,0,0,0-10.58,3c-2.44,1.85-4.25,4.32-6.51,6.36-3.17,2.87-7,3.56-11.2,3.16L186,66a23.17,23.17,0,0,1,7-4,66.82,66.82,0,0,1,7.79-2.54c1.59-.43,1.32-3.08-.4-2.95-10.82.82-20.69,5.61-30.77,9.22L171,68.33a17.59,17.59,0,0,1,3.32-2.76c1.65-1.21,3.33-2.39,4.94-3.66,2.16-1.7,5.88-4.53,4.4-7.7a1.48,1.48,0,0,0-1.3-.75c-4.32.24-8.6,1.63-12.8,2.57a60.45,60.45,0,0,1-6.66,1.23c-1.44.15-3.43.33-4.47-.26l.3,2.35a27.21,27.21,0,0,1,8.49-7.19l-1.82-2.36a63,63,0,0,1-15.2,12.69l2.2.89c-.45-1.51.18-3.13.74-4.53.69-1.69,1.57-3.31,2.3-5,.51-1.19-.7-3.07-2.06-2.06a77.63,77.63,0,0,0-14.35,13.82l2.56,1.06c-.35-4,1.51-7.83,2.52-11.61a17,17,0,0,0,.73-5.67c-.12-1.61-.68-4.36-2.21-5.26-1-.61-2.54.05-3.41.69a11.19,11.19,0,0,0-2.62,2.91,55.3,55.3,0,0,0-4.51,8.84c-1.26,2.83-2.34,6-4.22,8.52l2.79.76c0-4.16.14-8.33.34-12.48a148.37,148.37,0,0,1,1.75-18.59c.21-1.24.46-2.48.77-3.7.13-.53.28-1.06.45-1.58.07-.23.15-.47.24-.7s.3-.77.2-.54a11.86,11.86,0,0,1,.55-1.06c0-.09.4-.54.11-.19.12-.14.24-.27.37-.4s-.26.24.05,0a.51.51,0,0,1,.16-.09c-.71.09-.1.12-.12.07s.65,0-.15,0h.18c0,.08.67-.22-.15,0a.49.49,0,0,1,.23.06l.1.07c.33.24-.15-.16.18.13l.42.42a2.48,2.48,0,0,0,.25.3l.09.11c-.23-.56-.3-.56-.21,0a30.5,30.5,0,0,0,.11,3.93c0,1.34-.09,2.69-.23,4a34.49,34.49,0,0,1-4.06,13,52.1,52.1,0,0,1-4.5,6.78c-1,1.24-2,2.44-3,3.61-.48.56-2.21,2.94-3.17,2.28,0,0-.22-1.28-.25-1.56a8.45,8.45,0,0,1,.09-2,14.61,14.61,0,0,1,1.25-3.8,37.45,37.45,0,0,1,4.79-7.29l-2.35-1.82a82.74,82.74,0,0,1-13.92,19.9l2.51.67C111.88,58.44,106.63,51.1,99,50.38a13.2,13.2,0,0,0-13.56,9.18c-1.19,3.89-.78,9.51,3.18,11.73a7.74,7.74,0,0,0,6.91-.06,31,31,0,0,0,6.15-3.73c7.53-5.65,13-14.39,15.84-23.28,2.33-7.27,3.33-17.29-3.52-22.53-3.72-2.84-8.68-3.34-13.21-3-.75.07-1.5.16-2.25.26a9.49,9.49,0,0,0-1.19.18c-.74.23.68,0-.29.05a7.37,7.37,0,0,0-.93.11,9.53,9.53,0,0,0-2.1.91c-5,2.7-9.5,6.64-13.83,10.28Q71,38.27,62.44,46.78c-4.93,4.92-9.88,10-13.85,15.78-1.65,2.39-5.36,8-1.28,10.08,2,1,4.63.33,6.64-.22a74.61,74.61,0,0,0,11.78-4.67c2.76-1.29,5.49-2.67,8.2-4.08a1.51,1.51,0,0,0-1.16-2.74c-2.36.71-5,1.65-7.45,1.68h-.49c-.07,0,.22,0-.11,0s0,0,.08.13l.12.19c.19.39,0,.08,0,.08s-.07.22,0-.06.08-.28.13-.42-.08.16.05-.11l.22-.45c.19-.36.4-.72.62-1.07.51-.84,1.07-1.66,1.62-2.48C69,56.28,70.46,54.17,71.75,52a48.67,48.67,0,0,0,3.88-8.07,31.86,31.86,0,0,0,1.27-4.46,12.56,12.56,0,0,0,.42-4.64c-.47-2.93-2.7-5.6-5.8-5.78a7.87,7.87,0,0,0-4.74,1.62,42.29,42.29,0,0,0-4.59,3.52C55.65,40,51,47.47,45.75,54.36l2.74,1.15L53.22,39.1l7.53-26.17,1.74-6c.46-1.58-2-2.74-2.74-1.15C51.37,24.78,38.88,41.6,29,59.86,27.1,63.43,24,67.91,26.37,72a1.49,1.49,0,0,0,1.3.74c3.5-.25,6.77-1.91,9.64-3.84a45.07,45.07,0,0,0,9.23-8.37,35.27,35.27,0,0,0,6.28-10.3,16.59,16.59,0,0,0,1.1-5.15A9.29,9.29,0,0,0,52.57,40c-3.64-6.43-11.26-8.2-17.94-9.62A58.39,58.39,0,0,1,24,27.48a15.87,15.87,0,0,1-4-2.35,12.78,12.78,0,0,1-1.64-1.65c-.15-.18-.5-.86-.39-.35a5.43,5.43,0,0,1,.1-1.7C19.26,13.06,28.76,8,36.17,6.22a13.37,13.37,0,0,1,5-.4,14.77,14.77,0,0,1,3.16.79,10.64,10.64,0,0,1,1.06.52,2.85,2.85,0,0,1,.81.59c.15.13.28.27.42.41.28.31,0-.1.19.24.1.16.2.32.29.48s.22.49.15.3a6.65,6.65,0,0,1-.08,4.44,22.9,22.9,0,0,1-2.77,5.84A76.19,76.19,0,0,1,33.16,33a132.62,132.62,0,0,1-14,12.17c-2.09,1.57-4.24,3.08-6.48,4.46-.91.56-1.83,1.09-2.77,1.58-.41.22-.82.42-1.24.62a6.81,6.81,0,0,1-.88.37,10,10,0,0,1-1.87.53c-1.9.29-1.09,3.18.8,2.89a15.56,15.56,0,0,0,4.71-1.82,58.14,58.14,0,0,0,6-3.71A128.74,128.74,0,0,0,32,38.24a101.16,101.16,0,0,0,12.8-14.09c2.68-3.67,5.58-8.12,5.76-12.81.17-4.43-3.12-7.2-7.17-8.14a13.77,13.77,0,0,0-4.46-.48A31.07,31.07,0,0,0,33,4a32.5,32.5,0,0,0-11.84,6.58,17.57,17.57,0,0,0-6.06,10.75,4.79,4.79,0,0,0,.25,3.09,12.74,12.74,0,0,0,1.83,2.19,17.13,17.13,0,0,0,4.21,2.94C28,32.89,35.74,32.92,42.63,35.6a13.83,13.83,0,0,1,7.54,6.21c1.6,3,.34,6.67-1.09,9.56a38.41,38.41,0,0,1-7.46,10.08,34.08,34.08,0,0,1-9.88,7.16,12.29,12.29,0,0,1-4.07,1.13l1.29.74c-1.76-3,1.65-7.12,3-9.68,2.17-4.23,4.61-8.31,7.09-12.38,5.24-8.63,10.72-17.13,15.66-25.95,2.78-5,5.37-10,7.66-15.23L59.6,6.09l-4.72,16.4L47.34,48.67l-1.74,6c-.5,1.76,1.77,2.43,2.74,1.16,4.58-6,8.68-12.46,14.08-17.8a40.68,40.68,0,0,1,4.39-3.8c1.24-.9,2.8-2.27,4.42-2.25,3,0,3.44,3.78,2.9,6a42,42,0,0,1-2.83,8.48,64.32,64.32,0,0,1-4.06,7.07c-1.2,1.84-2.48,3.63-3.65,5.49A8.24,8.24,0,0,0,62,63c-.07,5.07,9.49,1.48,11.62.84l-1.15-2.74c-4.57,2.38-9.19,4.7-14,6.61-1.58.63-3.18,1.22-4.81,1.7-.62.18-1.24.34-1.87.47-.26.06-.53.11-.79.15-.08,0-.45.07-.22,0l-.3,0c-.41,0-.82,0-1.23,0s.18.09-.16,0L48.62,70c-.22,0,.32.2,0,0s.27.25,0,0,.2.31,0,0,0,.26,0,0,0-.23,0,0c0-.14,0-.28,0-.42,0-.44-.05.16,0-.1s.07-.36.12-.54.11-.34.16-.51.24-.58.11-.3c.2-.43.41-.85.63-1.27a40.62,40.62,0,0,1,4.08-5.88c2.06-2.56,4.27-5,6.52-7.39C65.29,48,70.76,42.79,76.38,37.78A185.65,185.65,0,0,1,91.23,25.63a35.66,35.66,0,0,1,4.94-3.11c.19-.1.54-.23.11-.06l.39-.15c.11,0,.23,0,.34-.09.33-.14-.41.12-.07,0,0,0,.08,0,.11,0s.36.12-.14,0,.27,0,.43,0c.72-.05,1.46-.25,2.18-.34a32.09,32.09,0,0,1,4-.24c3.66,0,7.42.9,9.88,3.58,2.11,2.31,2.84,5.65,2.83,8.87,0,8.38-4.06,16.81-9,23.42A34.33,34.33,0,0,1,98.63,66c-1.84,1.19-3.86,2.69-6.06,3.05a3.46,3.46,0,0,1-3.65-1.47c-2-3-1.09-7.77,1.14-10.53a10.66,10.66,0,0,1,7.25-3.69,11.11,11.11,0,0,1,8.56,3.75,20.79,20.79,0,0,1,5,9,1.52,1.52,0,0,0,2.51.67,86.13,86.13,0,0,0,14.38-20.51c.71-1.43-1.22-3.22-2.36-1.82C122,48.6,118,54,118.4,59.66a6.54,6.54,0,0,0,1.1,3.67,3.63,3.63,0,0,0,4.2.55,10.39,10.39,0,0,0,3.24-2.81c1-1.18,2-2.38,3-3.62a45.9,45.9,0,0,0,7.88-14.15,38.3,38.3,0,0,0,1.56-7.72,33.88,33.88,0,0,0,.07-8.77c-.36-2.1-3.2-3.92-5.21-2.92-1.82.91-2.62,3.18-3.18,5-2,6.3-2.34,13.21-2.77,19.75-.37,5.73-.61,11.5-.6,17.25a1.52,1.52,0,0,0,2.8.76A25.79,25.79,0,0,0,133,62c1-2.23,2-4.48,3-6.7a41.77,41.77,0,0,1,3.23-6,8.76,8.76,0,0,1,1.57-1.86A1.5,1.5,0,0,1,141.9,47l-1.3-.74c2.16,2.93,1.14,6.55.17,9.74-1.05,3.46-2.47,7.06-2.15,10.74.1,1.14,1.67,2.18,2.56,1.06A74.61,74.61,0,0,1,154.93,54.4l-2.05-2c-1.54,3.53-4.54,7.8-3.34,11.83a1.52,1.52,0,0,0,2.2.9,65.79,65.79,0,0,0,15.82-13.16,1.51,1.51,0,0,0-1.82-2.35,29,29,0,0,0-9.1,7.66,1.53,1.53,0,0,0,.3,2.36,9,9,0,0,0,5.09.75,52.24,52.24,0,0,0,7.12-1.14c4.34-.94,8.79-2.49,13.24-2.74l-1.29-.74c-.07-.16-.06.05,0-.11a1,1,0,0,1-.15.44,5.56,5.56,0,0,1-1.05,1.36,30,30,0,0,1-3.76,3.18c-2.37,1.76-5.29,3.34-7.21,5.62-.87,1-.08,3.06,1.46,2.51,9.78-3.51,19.47-8.32,30-9.12l-.4-3a65.57,65.57,0,0,0-8.49,2.84,25.74,25.74,0,0,0-7.62,4.43c-1.06,1-.14,2.44,1.06,2.56A16.85,16.85,0,0,0,196,64.19c2.54-1.68,4.4-4.07,6.54-6.19a12.83,12.83,0,0,1,7.87-4c1.8-.18,4.34-.46,5.59,1.15,1.59,2-.69,4.5-1.27,6.5-.46,1.56-.12,3.33,1.68,3.72a6.22,6.22,0,0,0,2.15-.07l.57-.06c.54-.05.16,0-.17-.23,1.47,1.24,3.6-.88,2.12-2.12Z"/></svg>